<mxfile host="app.diagrams.net" agent="Mozilla/5.0 (Macintosh; Intel Mac OS X 10_15_7) AppleWebKit/605.1.15 (KHTML, like Gecko) Version/18.0.1 Safari/605.1.15" version="24.7.17">
  <diagram name="Page-1" id="kIctkeBkr8f2s4fUDdkD">
    <mxGraphModel dx="555" dy="389" grid="1" gridSize="10" guides="1" tooltips="1" connect="1" arrows="1" fold="1" page="1" pageScale="1" pageWidth="827" pageHeight="1169" math="0" shadow="0">
      <root>
        <mxCell id="0" />
        <mxCell id="1" parent="0" />
        <mxCell id="JEee_by6WqiBMCdvXWW1-4" value="Cart Microservice" style="text;html=1;align=center;verticalAlign=middle;whiteSpace=wrap;rounded=0;" vertex="1" parent="1">
          <mxGeometry x="320" y="40" width="120" height="30" as="geometry" />
        </mxCell>
        <mxCell id="JEee_by6WqiBMCdvXWW1-6" value="" style="endArrow=none;html=1;rounded=0;bendable=0;fixDash=1;curved=0;dashed=1;" edge="1" parent="1">
          <mxGeometry width="50" height="50" relative="1" as="geometry">
            <mxPoint x="200" y="160" as="sourcePoint" />
            <mxPoint x="560" y="160" as="targetPoint" />
          </mxGeometry>
        </mxCell>
        <mxCell id="JEee_by6WqiBMCdvXWW1-7" value="" style="endArrow=none;html=1;rounded=0;dashed=1;" edge="1" parent="1">
          <mxGeometry width="50" height="50" relative="1" as="geometry">
            <mxPoint x="200" y="280" as="sourcePoint" />
            <mxPoint x="560" y="280" as="targetPoint" />
          </mxGeometry>
        </mxCell>
        <mxCell id="JEee_by6WqiBMCdvXWW1-8" value="" style="endArrow=none;html=1;rounded=0;dashed=1;" edge="1" parent="1">
          <mxGeometry width="50" height="50" relative="1" as="geometry">
            <mxPoint x="200" y="400" as="sourcePoint" />
            <mxPoint x="560" y="400" as="targetPoint" />
          </mxGeometry>
        </mxCell>
        <mxCell id="JEee_by6WqiBMCdvXWW1-9" value="Presentation Layer" style="text;html=1;align=left;verticalAlign=middle;whiteSpace=wrap;rounded=0;" vertex="1" parent="1">
          <mxGeometry x="200" y="120" width="60" height="30" as="geometry" />
        </mxCell>
        <mxCell id="JEee_by6WqiBMCdvXWW1-10" value="Service Layer" style="text;html=1;align=left;verticalAlign=middle;whiteSpace=wrap;rounded=0;" vertex="1" parent="1">
          <mxGeometry x="200" y="240" width="60" height="30" as="geometry" />
        </mxCell>
        <mxCell id="JEee_by6WqiBMCdvXWW1-11" value="Domain Layer" style="text;html=1;align=left;verticalAlign=middle;whiteSpace=wrap;rounded=0;" vertex="1" parent="1">
          <mxGeometry x="200" y="360" width="60" height="30" as="geometry" />
        </mxCell>
        <mxCell id="JEee_by6WqiBMCdvXWW1-12" value="Infastructure Layer" style="text;html=1;align=left;verticalAlign=middle;whiteSpace=wrap;rounded=0;" vertex="1" parent="1">
          <mxGeometry x="200" y="480" width="60" height="30" as="geometry" />
        </mxCell>
        <mxCell id="JEee_by6WqiBMCdvXWW1-13" value="" style="endArrow=none;html=1;rounded=0;dashed=1;" edge="1" parent="1">
          <mxGeometry width="50" height="50" relative="1" as="geometry">
            <mxPoint x="200" y="520" as="sourcePoint" />
            <mxPoint x="560" y="520" as="targetPoint" />
          </mxGeometry>
        </mxCell>
        <mxCell id="JEee_by6WqiBMCdvXWW1-15" value="Shared Domain Layer" style="text;html=1;align=left;verticalAlign=middle;whiteSpace=wrap;rounded=0;" vertex="1" parent="1">
          <mxGeometry x="400" y="360" width="80" height="30" as="geometry" />
        </mxCell>
      </root>
    </mxGraphModel>
  </diagram>
</mxfile>
